<?xml version="1.0" encoding="UTF-8" standalone="no"?><!DOCTYPE svg PUBLIC "-//W3C//DTD SVG 1.1//EN" "http://www.w3.org/Graphics/SVG/1.1/DTD/svg11.dtd"><!-- Generated by graphviz version 2.40.1 (20161225.0304)
 --><!-- Title: DFA Pages: 1 --><svg xmlns="http://www.w3.org/2000/svg" xmlns:xlink="http://www.w3.org/1999/xlink" width="381pt" height="201pt" viewBox="0.00 0.00 381.32 201.46">
<g id="graph0" class="graph" transform="scale(1 1) rotate(0) translate(4 197.4609)">
<title>DFA</title>
<polygon fill="#ffffff" stroke="transparent" points="-4,4 -4,-197.4609 377.3219,-197.4609 377.3219,4 -4,4"/>
<!-- 5 -->
<g id="node1" class="node">
<title>5</title>
<ellipse fill="none" stroke="#000000" cx="114.3219" cy="-123.6609" rx="18" ry="18"/>
<ellipse fill="none" stroke="#000000" cx="114.3219" cy="-123.6609" rx="22" ry="22"/>
<text text-anchor="middle" x="114.3219" y="-119.4609" font-family="Times,serif" font-size="14.00" fill="#000000">5</text>
</g>
<!-- 2 -->
<g id="node4" class="node">
<title>2</title>
<ellipse fill="none" stroke="#000000" cx="197.3219" cy="-67.6609" rx="18" ry="18"/>
<text text-anchor="middle" x="197.3219" y="-63.4609" font-family="Times,serif" font-size="14.00" fill="#000000">2</text>
</g>
<!-- 5&#45;&gt;2 -->
<g id="edge12" class="edge">
<title>5-&gt;2</title>
<path fill="none" stroke="#000000" d="M132.7423,-111.2327C144.8491,-103.0643 160.7984,-92.3033 173.8174,-83.5194"/>
<polygon fill="#000000" stroke="#000000" points="175.9471,-86.3047 182.2792,-77.8102 172.0319,-80.5019 175.9471,-86.3047"/>
<text text-anchor="middle" x="157.8219" y="-99.8609" font-family="Times,serif" font-size="14.00" fill="#000000">a</text>
</g>
<!-- start -->
<g id="node2" class="node">
<title>start</title>
<ellipse fill="none" stroke="#000000" cx="27.6609" cy="-27.6609" rx="27.8228" ry="27.8228"/>
<text text-anchor="middle" x="27.6609" y="-23.4609" font-family="Times,serif" font-size="14.00" fill="#000000">start</text>
</g>
<!-- 1 -->
<g id="node3" class="node">
<title>1</title>
<ellipse fill="none" stroke="#000000" cx="114.3219" cy="-27.6609" rx="18" ry="18"/>
<text text-anchor="middle" x="114.3219" y="-23.4609" font-family="Times,serif" font-size="14.00" fill="#000000">1</text>
</g>
<!-- start&#45;&gt;1 -->
<g id="edge1" class="edge">
<title>start-&gt;1</title>
<path fill="none" stroke="#000000" d="M55.558,-27.6609C65.369,-27.6609 76.3942,-27.6609 86.2218,-27.6609"/>
<polygon fill="#000000" stroke="#000000" points="86.3016,-31.161 96.3015,-27.6609 86.3015,-24.161 86.3016,-31.161"/>
</g>
<!-- 1&#45;&gt;2 -->
<g id="edge11" class="edge">
<title>1-&gt;2</title>
<path fill="none" stroke="#000000" d="M132.464,-24.904C141.51,-24.3141 152.395,-24.8297 161.3219,-28.8609 168.9769,-32.3178 175.7549,-38.2526 181.3064,-44.4552"/>
<polygon fill="#000000" stroke="#000000" points="178.64,-46.724 187.6559,-52.2886 184.0779,-42.3162 178.64,-46.724"/>
<text text-anchor="middle" x="157.8219" y="-33.8609" font-family="Times,serif" font-size="14.00" fill="#000000">a</text>
</g>
<!-- 2&#45;&gt;5 -->
<g id="edge3" class="edge">
<title>2-&gt;5</title>
<path fill="none" stroke="#000000" d="M179.2641,-64.7017C171.2086,-64.2273 161.8574,-64.8987 154.3219,-68.8609 143.4363,-74.5847 134.7762,-84.7557 128.3371,-94.794"/>
<polygon fill="#000000" stroke="#000000" points="125.2908,-93.0698 123.2501,-103.4662 131.3287,-96.6115 125.2908,-93.0698"/>
<text text-anchor="middle" x="157.8219" y="-73.8609" font-family="Times,serif" font-size="14.00" fill="#000000">d</text>
</g>
<!-- 3 -->
<g id="node5" class="node">
<title>3</title>
<ellipse fill="none" stroke="#000000" cx="355.3219" cy="-120.6609" rx="18" ry="18"/>
<text text-anchor="middle" x="355.3219" y="-116.4609" font-family="Times,serif" font-size="14.00" fill="#000000">3</text>
</g>
<!-- 2&#45;&gt;3 -->
<g id="edge2" class="edge">
<title>2-&gt;3</title>
<path fill="none" stroke="#000000" d="M215.1626,-63.7689C235.1494,-60.2475 268.1717,-56.9767 294.3219,-66.8609 311.1712,-73.2296 326.3747,-86.6096 337.389,-98.4323"/>
<polygon fill="#000000" stroke="#000000" points="335.0674,-101.0904 344.3138,-106.2631 340.3112,-96.4533 335.0674,-101.0904"/>
<text text-anchor="middle" x="276.3219" y="-71.8609" font-family="Times,serif" font-size="14.00" fill="#000000">b</text>
</g>
<!-- 4 -->
<g id="node6" class="node">
<title>4</title>
<ellipse fill="none" stroke="#000000" cx="276.3219" cy="-110.6609" rx="18" ry="18"/>
<text text-anchor="middle" x="276.3219" y="-106.4609" font-family="Times,serif" font-size="14.00" fill="#000000">4</text>
</g>
<!-- 2&#45;&gt;4 -->
<g id="edge4" class="edge">
<title>2-&gt;4</title>
<path fill="none" stroke="#000000" d="M213.3087,-76.3626C224.2308,-82.3076 238.9239,-90.3051 251.3745,-97.082"/>
<polygon fill="#000000" stroke="#000000" points="249.9023,-100.2655 260.3588,-101.9722 253.2489,-94.1173 249.9023,-100.2655"/>
<text text-anchor="middle" x="236.8219" y="-94.8609" font-family="Times,serif" font-size="14.00" fill="#000000">c</text>
</g>
<!-- 3&#45;&gt;5 -->
<g id="edge6" class="edge">
<title>3-&gt;5</title>
<path fill="none" stroke="#000000" d="M343.5039,-135.044C332.32,-147.4255 314.3045,-164.408 294.3219,-171.6609 241.4371,-190.8561 177.3114,-161.8012 141.6403,-141.2061"/>
<polygon fill="#000000" stroke="#000000" points="143.1691,-138.0428 132.7874,-135.9281 139.5844,-144.0553 143.1691,-138.0428"/>
<text text-anchor="middle" x="236.8219" y="-180.8609" font-family="Times,serif" font-size="14.00" fill="#000000">d</text>
</g>
<!-- 3&#45;&gt;3 -->
<g id="edge5" class="edge">
<title>3-&gt;3</title>
<path fill="none" stroke="#000000" d="M348.5883,-137.6982C347.2141,-147.5188 349.4586,-156.6609 355.3219,-156.6609 358.9864,-156.6609 361.2374,-153.0898 362.0748,-148.0139"/>
<polygon fill="#000000" stroke="#000000" points="365.5743,-147.6916 362.0555,-137.6982 358.5743,-147.7048 365.5743,-147.6916"/>
<text text-anchor="middle" x="355.3219" y="-160.8609" font-family="Times,serif" font-size="14.00" fill="#000000">b</text>
</g>
<!-- 3&#45;&gt;4 -->
<g id="edge7" class="edge">
<title>3-&gt;4</title>
<path fill="none" stroke="#000000" d="M337.2677,-120.5117C329.5555,-120.2697 320.4704,-119.7476 312.3219,-118.6609 309.5612,-118.2928 306.6994,-117.8188 303.8503,-117.2855"/>
<polygon fill="#000000" stroke="#000000" points="304.297,-113.8031 293.7917,-115.1776 302.8612,-120.6543 304.297,-113.8031"/>
<text text-anchor="middle" x="315.8219" y="-123.8609" font-family="Times,serif" font-size="14.00" fill="#000000">c</text>
</g>
<!-- 4&#45;&gt;5 -->
<g id="edge9" class="edge">
<title>4-&gt;5</title>
<path fill="none" stroke="#000000" d="M257.9084,-112.1386C230.8699,-114.3083 180.0272,-118.3883 146.6708,-121.065"/>
<polygon fill="#000000" stroke="#000000" points="146.1956,-117.5918 136.5076,-121.8806 146.7556,-124.5694 146.1956,-117.5918"/>
<text text-anchor="middle" x="197.3219" y="-122.8609" font-family="Times,serif" font-size="14.00" fill="#000000">d</text>
</g>
<!-- 4&#45;&gt;3 -->
<g id="edge8" class="edge">
<title>4-&gt;3</title>
<path fill="none" stroke="#000000" d="M292.2343,-101.4573C300.3357,-97.9072 310.345,-95.2574 319.3219,-97.8609 323.8404,-99.1714 328.3355,-101.2378 332.54,-103.6036"/>
<polygon fill="#000000" stroke="#000000" points="330.8576,-106.6812 341.1764,-109.084 334.6082,-100.7708 330.8576,-106.6812"/>
<text text-anchor="middle" x="315.8219" y="-102.8609" font-family="Times,serif" font-size="14.00" fill="#000000">b</text>
</g>
<!-- 4&#45;&gt;4 -->
<g id="edge10" class="edge">
<title>4-&gt;4</title>
<path fill="none" stroke="#000000" d="M269.5883,-127.6982C268.2141,-137.5188 270.4586,-146.6609 276.3219,-146.6609 279.9864,-146.6609 282.2374,-143.0898 283.0748,-138.0139"/>
<polygon fill="#000000" stroke="#000000" points="286.5743,-137.6916 283.0555,-127.6982 279.5743,-137.7048 286.5743,-137.6916"/>
<text text-anchor="middle" x="276.3219" y="-150.8609" font-family="Times,serif" font-size="14.00" fill="#000000">c</text>
</g>
</g>
</svg>