<?xml version="1.0" encoding="UTF-8" standalone="no"?><!DOCTYPE svg PUBLIC "-//W3C//DTD SVG 1.1//EN" "http://www.w3.org/Graphics/SVG/1.1/DTD/svg11.dtd"><!-- Generated by graphviz version 2.40.1 (20161225.0304)
 --><!-- Title: NFA Pages: 1 --><svg xmlns="http://www.w3.org/2000/svg" xmlns:xlink="http://www.w3.org/1999/xlink" width="629pt" height="221pt" viewBox="0.00 0.00 628.73 221.46">
<g id="graph0" class="graph" transform="scale(1 1) rotate(0) translate(4 217.4609)">
<title>NFA</title>
<polygon fill="#ffffff" stroke="transparent" points="-4,4 -4,-217.4609 624.7264,-217.4609 624.7264,4 -4,4"/>
<!-- 1 -->
<g id="node1" class="node">
<title>1</title>
<ellipse fill="none" stroke="#000000" cx="110.3219" cy="-27.6609" rx="18" ry="18"/>
<text text-anchor="middle" x="110.3219" y="-23.4609" font-family="Times,serif" font-size="14.00" fill="#000000">1</text>
</g>
<!-- 2 -->
<g id="node2" class="node">
<title>2</title>
<ellipse fill="none" stroke="#000000" cx="190.4825" cy="-27.6609" rx="18" ry="18"/>
<text text-anchor="middle" x="190.4825" y="-23.4609" font-family="Times,serif" font-size="14.00" fill="#000000">2</text>
</g>
<!-- 1&#45;&gt;2 -->
<g id="edge1" class="edge">
<title>1-&gt;2</title>
<path fill="none" stroke="#000000" d="M128.5116,-27.6609C138.4531,-27.6609 150.9867,-27.6609 162.1765,-27.6609"/>
<polygon fill="#000000" stroke="#000000" points="162.3648,-31.161 172.3648,-27.6609 162.3647,-24.161 162.3648,-31.161"/>
<text text-anchor="middle" x="150.4022" y="-31.8609" font-family="Times,serif" font-size="14.00" fill="#000000">ε</text>
</g>
<!-- 3 -->
<g id="node3" class="node">
<title>3</title>
<ellipse fill="none" stroke="#000000" cx="268.6971" cy="-84.6609" rx="18" ry="18"/>
<text text-anchor="middle" x="268.6971" y="-80.4609" font-family="Times,serif" font-size="14.00" fill="#000000">3</text>
</g>
<!-- 2&#45;&gt;3 -->
<g id="edge2" class="edge">
<title>2-&gt;3</title>
<path fill="none" stroke="#000000" d="M205.194,-38.3822C216.6649,-46.7418 232.7982,-58.4991 245.9325,-68.071"/>
<polygon fill="#000000" stroke="#000000" points="243.9085,-70.9267 254.0515,-73.9877 248.0312,-65.2695 243.9085,-70.9267"/>
<text text-anchor="middle" x="229.5898" y="-62.8609" font-family="Times,serif" font-size="14.00" fill="#000000">a</text>
</g>
<!-- 4 -->
<g id="node4" class="node">
<title>4</title>
<ellipse fill="none" stroke="#000000" cx="348.8577" cy="-111.6609" rx="18" ry="18"/>
<text text-anchor="middle" x="348.8577" y="-107.4609" font-family="Times,serif" font-size="14.00" fill="#000000">4</text>
</g>
<!-- 3&#45;&gt;4 -->
<g id="edge3" class="edge">
<title>3-&gt;4</title>
<path fill="none" stroke="#000000" d="M286.0907,-90.5195C296.5613,-94.0463 310.1119,-98.6104 321.9414,-102.5949"/>
<polygon fill="#000000" stroke="#000000" points="321.1792,-106.0313 331.7734,-105.9065 323.4137,-99.3975 321.1792,-106.0313"/>
<text text-anchor="middle" x="308.7774" y="-102.8609" font-family="Times,serif" font-size="14.00" fill="#000000">ε</text>
</g>
<!-- 5 -->
<g id="node5" class="node">
<title>5</title>
<ellipse fill="none" stroke="#000000" cx="429.0183" cy="-165.6609" rx="18" ry="18"/>
<text text-anchor="middle" x="429.0183" y="-161.4609" font-family="Times,serif" font-size="14.00" fill="#000000">5</text>
</g>
<!-- 4&#45;&gt;5 -->
<g id="edge4" class="edge">
<title>4-&gt;5</title>
<path fill="none" stroke="#000000" d="M363.9353,-121.8179C375.6915,-129.7375 392.2262,-140.876 405.6873,-149.9441"/>
<polygon fill="#000000" stroke="#000000" points="403.7591,-152.8652 414.0083,-155.5495 407.6701,-147.0596 403.7591,-152.8652"/>
<text text-anchor="middle" x="388.938" y="-143.8609" font-family="Times,serif" font-size="14.00" fill="#000000">b</text>
</g>
<!-- 6 -->
<g id="node7" class="node">
<title>6</title>
<ellipse fill="none" stroke="#000000" cx="429.0183" cy="-111.6609" rx="18" ry="18"/>
<text text-anchor="middle" x="429.0183" y="-107.4609" font-family="Times,serif" font-size="14.00" fill="#000000">6</text>
</g>
<!-- 4&#45;&gt;6 -->
<g id="edge7" class="edge">
<title>4-&gt;6</title>
<path fill="none" stroke="#000000" d="M367.0474,-111.6609C376.9889,-111.6609 389.5225,-111.6609 400.7123,-111.6609"/>
<polygon fill="#000000" stroke="#000000" points="400.9006,-115.161 410.9006,-111.6609 400.9005,-108.161 400.9006,-115.161"/>
<text text-anchor="middle" x="388.938" y="-115.8609" font-family="Times,serif" font-size="14.00" fill="#000000">c</text>
</g>
<!-- 8 -->
<g id="node8" class="node">
<title>8</title>
<ellipse fill="none" stroke="#000000" cx="429.0183" cy="-57.6609" rx="18" ry="18"/>
<text text-anchor="middle" x="429.0183" y="-53.4609" font-family="Times,serif" font-size="14.00" fill="#000000">8</text>
</g>
<!-- 4&#45;&gt;8 -->
<g id="edge9" class="edge">
<title>4-&gt;8</title>
<path fill="none" stroke="#000000" d="M363.9353,-101.504C375.6915,-93.5844 392.2262,-82.4458 405.6873,-73.3778"/>
<polygon fill="#000000" stroke="#000000" points="407.6701,-76.2622 414.0083,-67.7724 403.7591,-70.4567 407.6701,-76.2622"/>
<text text-anchor="middle" x="388.938" y="-89.8609" font-family="Times,serif" font-size="14.00" fill="#000000">ε</text>
</g>
<!-- 7 -->
<g id="node6" class="node">
<title>7</title>
<ellipse fill="none" stroke="#000000" cx="509.1789" cy="-165.6609" rx="18" ry="18"/>
<text text-anchor="middle" x="509.1789" y="-161.4609" font-family="Times,serif" font-size="14.00" fill="#000000">7</text>
</g>
<!-- 5&#45;&gt;7 -->
<g id="edge5" class="edge">
<title>5-&gt;7</title>
<path fill="none" stroke="#000000" d="M447.208,-165.6609C457.1495,-165.6609 469.6831,-165.6609 480.8729,-165.6609"/>
<polygon fill="#000000" stroke="#000000" points="481.0612,-169.161 491.0612,-165.6609 481.0611,-162.161 481.0612,-169.161"/>
<text text-anchor="middle" x="469.0986" y="-169.8609" font-family="Times,serif" font-size="14.00" fill="#000000">ε</text>
</g>
<!-- 7&#45;&gt;4 -->
<g id="edge6" class="edge">
<title>7-&gt;4</title>
<path fill="none" stroke="#000000" d="M494.3102,-176.0394C474.5749,-188.4292 438.9668,-205.912 411.0183,-192.6609 387.7247,-181.6169 370.8361,-156.9804 360.5926,-137.759"/>
<polygon fill="#000000" stroke="#000000" points="363.5917,-135.9323 355.9709,-128.5719 357.3384,-139.0782 363.5917,-135.9323"/>
<text text-anchor="middle" x="429.0183" y="-200.8609" font-family="Times,serif" font-size="14.00" fill="#000000">ε</text>
</g>
<!-- 6&#45;&gt;7 -->
<g id="edge8" class="edge">
<title>6-&gt;7</title>
<path fill="none" stroke="#000000" d="M444.0959,-121.8179C455.8521,-129.7375 472.3868,-140.876 485.8479,-149.9441"/>
<polygon fill="#000000" stroke="#000000" points="483.9197,-152.8652 494.1689,-155.5495 487.8307,-147.0596 483.9197,-152.8652"/>
<text text-anchor="middle" x="469.0986" y="-143.8609" font-family="Times,serif" font-size="14.00" fill="#000000">ε</text>
</g>
<!-- 9 -->
<g id="node9" class="node">
<title>9</title>
<ellipse fill="none" stroke="#000000" cx="509.1789" cy="-31.6609" rx="18" ry="18"/>
<text text-anchor="middle" x="509.1789" y="-27.4609" font-family="Times,serif" font-size="14.00" fill="#000000">9</text>
</g>
<!-- 8&#45;&gt;9 -->
<g id="edge10" class="edge">
<title>8-&gt;9</title>
<path fill="none" stroke="#000000" d="M446.4119,-52.0193C456.8113,-48.6463 470.2489,-44.2878 482.021,-40.4696"/>
<polygon fill="#000000" stroke="#000000" points="483.3869,-43.7061 491.8192,-37.2915 481.2271,-37.0476 483.3869,-43.7061"/>
<text text-anchor="middle" x="469.0986" y="-49.8609" font-family="Times,serif" font-size="14.00" fill="#000000">d</text>
</g>
<!-- 9&#45;&gt;2 -->
<g id="edge12" class="edge">
<title>9-&gt;2</title>
<path fill="none" stroke="#000000" d="M492.2829,-24.8899C476.266,-19.0877 451.394,-11.6609 429.0183,-11.6609 268.6971,-11.6609 268.6971,-11.6609 268.6971,-11.6609 251.3546,-11.6609 232.2799,-15.4833 217.3094,-19.3915"/>
<polygon fill="#000000" stroke="#000000" points="216.373,-16.019 207.6726,-22.0649 218.2444,-22.7642 216.373,-16.019"/>
<text text-anchor="middle" x="348.8577" y="-15.8609" font-family="Times,serif" font-size="14.00" fill="#000000">ε</text>
</g>
<!-- 10 -->
<g id="node10" class="node">
<title>10</title>
<ellipse fill="none" stroke="#000000" cx="596.0329" cy="-31.6609" rx="20.8568" ry="20.8568"/>
<ellipse fill="none" stroke="#000000" cx="596.0329" cy="-31.6609" rx="24.8884" ry="24.8884"/>
<text text-anchor="middle" x="596.0329" y="-27.4609" font-family="Times,serif" font-size="14.00" fill="#000000">10</text>
</g>
<!-- 9&#45;&gt;10 -->
<g id="edge11" class="edge">
<title>9-&gt;10</title>
<path fill="none" stroke="#000000" d="M527.5984,-31.6609C537.282,-31.6609 549.4822,-31.6609 560.8903,-31.6609"/>
<polygon fill="#000000" stroke="#000000" points="561.0495,-35.161 571.0495,-31.6609 561.0495,-28.161 561.0495,-35.161"/>
<text text-anchor="middle" x="549.2592" y="-35.8609" font-family="Times,serif" font-size="14.00" fill="#000000">ε</text>
</g>
<!-- start -->
<g id="node11" class="node">
<title>start</title>
<ellipse fill="none" stroke="#000000" cx="27.6609" cy="-27.6609" rx="27.8228" ry="27.8228"/>
<text text-anchor="middle" x="27.6609" y="-23.4609" font-family="Times,serif" font-size="14.00" fill="#000000">start</text>
</g>
<!-- start&#45;&gt;1 -->
<g id="edge13" class="edge">
<title>start-&gt;1</title>
<path fill="none" stroke="#000000" d="M55.6462,-27.6609C64.0768,-27.6609 73.3374,-27.6609 81.8023,-27.6609"/>
<polygon fill="#000000" stroke="#000000" points="81.9768,-31.161 91.9767,-27.6609 81.9767,-24.161 81.9768,-31.161"/>
</g>
</g>
</svg>